<?xml version="1.0" encoding="UTF-8" standalone="no"?>
<!-- Created with Inkscape (http://www.inkscape.org/) -->

<svg
   xmlns:dc="http://purl.org/dc/elements/1.1/"
   xmlns:cc="http://creativecommons.org/ns#"
   xmlns:rdf="http://www.w3.org/1999/02/22-rdf-syntax-ns#"
   xmlns:svg="http://www.w3.org/2000/svg"
   xmlns="http://www.w3.org/2000/svg"
   xmlns:sodipodi="http://sodipodi.sourceforge.net/DTD/sodipodi-0.dtd"
   xmlns:inkscape="http://www.inkscape.org/namespaces/inkscape"
   id="svg2"
   version="1.1"
   inkscape:version="0.91 r13725"
   xml:space="preserve"
   width="656.375"
   height="652.38751"
   viewBox="0 0 656.375 652.38751"
   sodipodi:docname="bulb.svg"><metadata
     id="metadata8"><rdf:RDF><cc:Work
         rdf:about=""><dc:format>image/svg+xml</dc:format><dc:type
           rdf:resource="http://purl.org/dc/dcmitype/StillImage" /><dc:title></dc:title></cc:Work></rdf:RDF></metadata><defs
     id="defs6" /><sodipodi:namedview
     pagecolor="#ffffff"
     bordercolor="#666666"
     borderopacity="1"
     objecttolerance="10"
     gridtolerance="10"
     guidetolerance="10"
     inkscape:pageopacity="0"
     inkscape:pageshadow="2"
     inkscape:window-width="3840"
     inkscape:window-height="2121"
     id="namedview4"
     showgrid="false"
     inkscape:zoom="2.0463568"
     inkscape:cx="345.6478"
     inkscape:cy="371.20448"
     inkscape:window-x="0"
     inkscape:window-y="39"
     inkscape:window-maximized="1"
     inkscape:current-layer="g10" /><g
     id="g10"
     inkscape:groupmode="layer"
     inkscape:label="ink_ext_XXXXXX"
     transform="matrix(1.25,0,0,-1.25,0,652.3875)"><g
       id="g4500"
       transform="matrix(1.4797399,0,0,1.4797399,-133.16796,-259.31786)"><path
         d="m 343.018,312.223 c 0.66,1.108 1.29,2.215 1.903,3.323 0.585,1.028 0.908,1.653 0.949,1.733 0.028,0.054 0.048,0.11 0.075,0.165 7.429,14.045 11.062,28.107 11.062,42.819 0,49.318 -40.123,89.441 -89.44,89.441 -49.317,0 -89.44,-40.123 -89.44,-89.441 0,-14.71 3.633,-28.772 11.061,-42.816 0.028,-0.056 0.048,-0.113 0.076,-0.168 0.041,-0.08 0.366,-0.707 0.953,-1.74 0.611,-1.105 1.24,-2.21 1.9,-3.316 0.27,-0.453 0.572,-0.876 0.895,-1.275 1.574,-2.441 3.629,-5.419 6.17,-8.665 1.597,-2.04 3.35,-4.21 5.157,-6.448 5.987,-7.413 13.438,-16.638 15.42,-21.837 4.715,-12.36 5.565,-21.607 5.569,-21.659 l 0.8,-10.015 82.878,0 0.8,10.015 c 0.007,0.089 0.845,9.276 5.57,21.66 1.982,5.199 9.434,14.426 15.422,21.84 1.807,2.235 3.559,4.405 5.154,6.444 2.541,3.245 4.597,6.224 6.171,8.665 0.323,0.399 0.624,0.822 0.895,1.275"
         style="fill:#3b3c40;fill-opacity:1;fill-rule:nonzero;stroke:none"
         id="path36"
         inkscape:connector-curvature="0" /><path
         d="m 256.686,229.95 -31.392,0 0,-14.677 c 0.021,-2.424 0.455,-10.772 5.196,-16.422 4.256,-5.071 11.163,-6.69 16.029,-7.175 0.188,-1.822 0.765,-4.629 2.508,-6.702 2.791,-3.33 7.869,-3.69 9.922,-3.69 l 0,5.44 0.032,-5.44 17.2,0 c 2.054,0 7.132,0.36 9.917,3.683 1.741,2.071 2.321,4.867 2.511,6.709 4.866,0.484 11.775,2.103 16.032,7.176 4.74,5.649 5.175,13.996 5.195,16.512 l 0,14.586 -53.15,0"
         style="fill:#3b3c40;fill-opacity:1;fill-rule:nonzero;stroke:none"
         id="path38"
         inkscape:connector-curvature="0" /><path
         d="m 247.736,421.281 c -20.619,-6.554 -36.73,-23.645 -42.046,-44.603 -1.048,-4.134 1.453,-8.336 5.588,-9.385 0.638,-0.162 1.276,-0.239 1.905,-0.239 3.45,0 6.594,2.329 7.481,5.827 4.013,15.824 16.18,28.729 31.752,33.679 4.065,1.292 6.313,5.635 5.021,9.7 -1.292,4.066 -5.636,6.313 -9.701,5.021"
         style="fill:#ffffff;fill-opacity:1;fill-rule:nonzero;stroke:none"
         id="path40"
         inkscape:connector-curvature="0" /><path
         d="m 267.444,468.154 c 6.009,0 10.881,4.871 10.881,10.88 l 0,31.996 c 0,6.009 -4.872,10.881 -10.881,10.881 -6.009,0 -10.881,-4.872 -10.881,-10.881 l 0,-31.996 c 0,-6.009 4.872,-10.88 10.881,-10.88"
         style="fill:#3b3c40;fill-opacity:1;fill-rule:nonzero;stroke:none"
         id="path42"
         inkscape:connector-curvature="0" /><path
         d="m 174.359,435.987 c 2.125,-2.125 4.909,-3.187 7.694,-3.187 2.785,0 5.57,1.062 7.694,3.187 4.249,4.249 4.249,11.138 0,15.388 L 167.123,474 c -4.25,4.248 -11.139,4.248 -15.388,0 -4.249,-4.25 -4.249,-11.139 0,-15.388 l 22.624,-22.625"
         style="fill:#3b3c40;fill-opacity:1;fill-rule:nonzero;stroke:none"
         id="path44"
         inkscape:connector-curvature="0" /><path
         d="m 157.553,358.301 c 0,6.009 -4.872,10.881 -10.882,10.881 l -31.996,0 c -6.009,0 -10.881,-4.872 -10.881,-10.881 0,-6.009 4.872,-10.881 10.881,-10.881 l 31.996,0 c 6.01,0 10.882,4.872 10.882,10.881"
         style="fill:#3b3c40;fill-opacity:1;fill-rule:nonzero;stroke:none"
         id="path46"
         inkscape:connector-curvature="0" /><path
         d="m 174.331,280.604 -22.625,-22.625 c -4.249,-4.249 -4.249,-11.138 0,-15.387 2.125,-2.125 4.91,-3.187 7.695,-3.187 2.784,0 5.569,1.062 7.693,3.187 l 22.625,22.624 c 4.25,4.249 4.25,11.139 0,15.388 -4.249,4.249 -11.138,4.249 -15.388,0"
         style="fill:#3b3c40;fill-opacity:1;fill-rule:nonzero;stroke:none"
         id="path48"
         inkscape:connector-curvature="0" /><path
         d="m 360.49,280.576 c -4.249,4.25 -11.139,4.25 -15.388,0 -4.25,-4.249 -4.25,-11.139 0,-15.388 l 22.624,-22.624 c 2.125,-2.125 4.91,-3.187 7.694,-3.187 2.785,0 5.57,1.062 7.695,3.187 4.249,4.249 4.249,11.138 0,15.387 l -22.625,22.625"
         style="fill:#3b3c40;fill-opacity:1;fill-rule:nonzero;stroke:none"
         id="path50"
         inkscape:connector-curvature="0" /><path
         d="m 420.173,369.142 -31.995,0 c -6.01,0 -10.882,-4.871 -10.882,-10.88 0,-6.01 4.872,-10.881 10.882,-10.881 l 31.995,0 c 6.01,0 10.881,4.871 10.881,10.881 0,6.009 -4.871,10.88 -10.881,10.88"
         style="fill:#3b3c40;fill-opacity:1;fill-rule:nonzero;stroke:none"
         id="path52"
         inkscape:connector-curvature="0" /><path
         d="m 352.824,432.772 c 2.784,0 5.569,1.062 7.694,3.187 l 22.624,22.624 c 4.249,4.249 4.249,11.139 0,15.388 -4.249,4.25 -11.139,4.25 -15.388,0 l -22.625,-22.625 c -4.249,-4.248 -4.249,-11.138 0,-15.387 2.125,-2.125 4.91,-3.187 7.695,-3.187"
         style="fill:#3b3c40;fill-opacity:1;fill-rule:nonzero;stroke:none"
         id="path54"
         inkscape:connector-curvature="0" /></g></g></svg>