<?xml version="1.0" encoding="iso-8859-1"?>
<!-- Generator: Adobe Illustrator 19.0.0, SVG Export Plug-In . SVG Version: 6.00 Build 0)  -->
<svg version="1.1" id="Layer_1" xmlns="http://www.w3.org/2000/svg" xmlns:xlink="http://www.w3.org/1999/xlink" x="0px" y="0px"
	 viewBox="0 0 512 512" style="enable-background:new 0 0 512 512;" xml:space="preserve">
<path style="fill:#7C7E7F;" d="M447.958,130.05v356.714c0,13.919-11.317,25.236-25.236,25.236H89.278
	c-13.919,0-25.236-11.317-25.236-25.236V25.236C64.042,11.317,75.359,0,89.278,0h228.631c3.309,0,6.294,1.331,8.464,3.489
	c0,0.012,0.012,0.012,0.012,0.012l118.074,118.074c2.206,2.206,3.393,5.131,3.489,8.128
	C447.946,129.822,447.958,129.93,447.958,130.05z M423.981,486.764V142.038h-89.026c-16.016,0-29.036-13.019-29.036-29.036V23.977
	H89.278c-0.695,0-1.259,0.563-1.259,1.259v461.529c0,0.695,0.563,1.259,1.259,1.259h333.445
	C423.418,488.023,423.981,487.46,423.981,486.764z M334.956,118.062h72.074l-77.133-77.133v72.074
	C329.896,115.796,332.162,118.062,334.956,118.062z"/>
<g>
	<path style="fill:#7C7E7F;" d="M423.981,142.038v344.726c0,0.695-0.563,1.259-1.259,1.259H89.278c-0.695,0-1.259-0.563-1.259-1.259
		V25.236c0-0.695,0.563-1.259,1.259-1.259H305.92v89.026c0,16.016,13.019,29.036,29.036,29.036H423.981z"/>
	<path style="fill:#24282A;" d="M407.03,118.062h-72.074c-2.793,0-5.059-2.266-5.059-5.059V40.928L407.03,118.062z"/>
</g>
<g>
</g>
<g>
</g>
<g>
</g>
<g>
</g>
<g>
</g>
<g>
</g>
<g>
</g>
<g>
</g>
<g>
</g>
<g>
</g>
<g>
</g>
<g>
</g>
<g>
</g>
<g>
</g>
<g>
</g>
</svg>
