<?xml version="1.0" encoding="utf-8"?>
<!-- Generator: Adobe Illustrator 22.0.0, SVG Export Plug-In . SVG Version: 6.00 Build 0)  -->
<svg version="1.1" id="Layer_1" xmlns="http://www.w3.org/2000/svg" xmlns:xlink="http://www.w3.org/1999/xlink" x="0px" y="0px"
	 viewBox="0 0 512 512" fill="#ff916d" style="enable-background:new 0 0 512 512;" xml:space="preserve">
<g>
	<g>
		<path d="M428.4,344.7h66.9c9.2,0,16.7-7.5,16.7-16.7V27.1c0-9.2-7.5-16.7-16.7-16.7h-66.9c-9.2,0-16.7,7.5-16.7,16.7V328
			C411.7,337.3,419.2,344.7,428.4,344.7z"/>
	</g>
</g>
<g>
	<g>
		<path d="M41.7,344.7c2.7,0.5,128.7,0,128.7,0l-17.6,48c-12.1,33.2-4.3,83.8,29.4,101.8c11,5.9,26.3,8.8,38.7,5.7
			c7.1-1.8,13.3-6.5,17-12.8c4.3-7.2,3.8-15.7,5.4-23.7c3.9-20.3,13.5-39.7,28.4-54.2c26-25.3,106.6-98.3,106.6-98.3V43.9H99.7
			c-37.6,0-62.2,42-43.7,74.7c-22.1,14.2-29.7,44-16.7,66.9c-22.1,14.2-29.7,44-16.7,66.9C-15.6,276.8-2.8,337.2,41.7,344.7z"/>
	</g>
</g>
</svg>
