<svg id="Layer_1" data-name="Layer 1" xmlns="http://www.w3.org/2000/svg" viewBox="0 0 48.24 42.7"><defs><style>.cls-1{fill:#ef4b53;}.cls-2{fill:none;stroke:#303030;stroke-linecap:round;stroke-linejoin:round;stroke-width:0.7px;}</style></defs><title>heart-reaction</title><g id="Icons"><path class="cls-1" d="M42.62,24.27,43.94,23A13.17,13.17,0,0,0,25.32,4.34L24,5.66,22.68,4.34a13.19,13.19,0,0,0-18.61,0A13.21,13.21,0,0,0,4.07,23l1.31,1.31,18,18a1,1,0,0,0,1.35,0L42.62,24.27" transform="translate(0.12 -0.15)"/><path class="cls-2" d="M42.62,24.27,43.94,23A13.17,13.17,0,0,0,25.32,4.34L24,5.66,22.68,4.34a13.19,13.19,0,0,0-18.61,0A13.21,13.21,0,0,0,4.07,23l1.31,1.31,18,18a1,1,0,0,0,1.35,0L42.62,24.27" transform="translate(0.12 -0.15)"/><path class="cls-2" d="M4.09,14.92A11.18,11.18,0,0,0,4.28,17" transform="translate(0.12 -0.15)"/><path class="cls-2" d="M13,4.11a11,11,0,0,0-8.26,7.07" transform="translate(0.12 -0.15)"/></g></svg>