<?xml version="1.0" encoding="utf-8"?>
<!-- Generator: Adobe Illustrator 22.0.0, SVG Export Plug-In . SVG Version: 6.00 Build 0)  -->
<svg version="1.1" id="Layer_1" xmlns:sketch="http://www.bohemiancoding.com/sketch/ns"
	 xmlns="http://www.w3.org/2000/svg" xmlns:xlink="http://www.w3.org/1999/xlink" x="0px" y="0px" viewBox="0 0 32 32"
	 style="enable-background:new 0 0 32 32;" xml:space="preserve">
<style type="text/css">
	.st0{fill:#929292;}
</style>
<title></title>
<desc></desc>
<g id="Page-1">
	<g id="icon-111-search">
		<path id="search" class="st0" d="M19.4,20.4c-1.4,1-3.1,1.6-4.9,1.6C9.8,22,6,18.2,6,13.5S9.8,5,14.5,5S23,8.8,23,13.5
			c0,2.3-1,4.5-2.5,6l6,6c0.3,0.3,0.3,0.7,0,1c-0.3,0.3-0.7,0.3-1,0L19.4,20.4L19.4,20.4z M14.5,21c4.1,0,7.5-3.4,7.5-7.5
			S18.6,6,14.5,6S7,9.4,7,13.5S10.4,21,14.5,21L14.5,21z"/>
	</g>
</g>
</svg>
