<svg xmlns="http://www.w3.org/2000/svg" viewBox="0 0 40 40" focusable="false">
  <path d="M28 40H11.8c-3.3 0-5.9-2.7-5.9-5.9V16c0-.6.4-1 1-1s1 .4 1 1v18.1c0 2.2 1.8 3.9 3.9 3.9H28c2.2 0 3.9-1.8 3.9-3.9V16c0-.6.4-1 1-1s1 .4 1 1v18.1c0 3.2-2.7 5.9-5.9 5.9zM33.3 4.9h-7.6C25.2 2.1 22.8 0 19.9 0s-5.3 2.1-5.8 4.9H6.5C4.2 4.9 2.4 6.7 2.4 9s1.8 4 4.1 4h26.9c2.3 0 4.1-1.8 4.1-4.1s-1.9-4-4.2-4zM19.9 2c1.8 0 3.3 1.2 3.7 2.9h-7.5c.5-1.7 2-2.9 3.8-2.9zm13.4 9H6.5c-1.1 0-2.1-.9-2.1-2.1 0-1.1.9-2.1 2.1-2.1h26.9c1.1 0 2.1.9 2.1 2.1-.1 1.2-1 2.1-2.2 2.1z"/>
  <path d="M12.9 35.1c-.6 0-1-.4-1-1V17.4c0-.6.4-1 1-1s1 .4 1 1v16.7c0 .5-.5 1-1 1zM26.9 35.1c-.6 0-1-.4-1-1V17.4c0-.6.4-1 1-1s1 .4 1 1v16.7c0 .5-.5 1-1 1zM19.9 35.1c-.6 0-1-.4-1-1V17.4c0-.6.4-1 1-1s1 .4 1 1v16.7c0 .5-.5 1-1 1z"/>
</svg>
