<svg xmlns="http://www.w3.org/2000/svg" width="512" height="512" viewBox="-61 0 512 512" focusable="false">
  <path fill="#7c7e7f" d="m374.660156 55.078125h-40.207031v-40.113281c0-8.265625-6.699219-14.964844-14.964844-14.964844h-53.316406c-8.265625 0-14.964844 6.699219-14.964844 14.964844v40.113281l-124.828125-.121094c-5.511718 0-7.921875 1.71875-10.574218 4.375l-111.414063 111.21875c-2.5625 2.574219-4.390625 5.492188-4.390625 10.59375v315.890625c0 8.265625 6.699219 14.964844 14.964844 14.964844h304.75c8.265625 0 14.96875-6.699219 14.96875-14.964844l-.230469-358.804687h40.207031c8.265625 0 14.964844-6.699219 14.964844-14.964844v-53.222656c0-8.265625-6.699219-14.964844-14.964844-14.964844zm-263.246094 50.933594v60.164062h-60.273437zm193.335938 376.054687h-274.820312v-285.957031h96.449218c8.265625 0 14.964844-6.699219 14.964844-14.964844v-96.253906h54.691406v38.375c0 8.265625 6.699219 14.964844 14.964844 14.964844h40.207031v40.113281c0 8.265625 6.699219 14.964844 14.964844 14.964844h38.578125zm54.945312-373.765625h-40.207031c-8.265625 0-14.964843 6.699219-14.964843 14.964844v40.109375h-23.386719v-40.109375c0-8.265625-6.699219-14.964844-14.964844-14.964844h-40.207031v-23.292969h40.207031c8.265625 0 14.964844-6.699218 14.964844-14.964843v-40.109375h23.386719v40.109375c0 8.265625 6.699218 14.964843 14.964843 14.964843h40.207031zm0 0"/>
</svg>
